<svg width="250" height="250" viewBox="0 0 250 250" fill="none" xmlns="http://www.w3.org/2000/svg">
    <path opacity="0.3"
          d="M10.9094 169.254C36.172 228.076 102.84 253.348 155.082 249.036C169.345 247.861 198.042 245.493 220.457 224.379C263.49 183.833 256.864 99.0698 215.667 49.1683C210.362 42.742 173.638 -0.317317 116.416 0.261146C74.5222 0.685954 45.111 24.2673 41.5408 27.2048C37.0216 30.9197 27.0612 39.7322 18.086 53.7237C-3.01887 86.5967 -4.8808 132.485 10.9094 169.254Z"
          fill="url(#paint0_linear)"/>
    <g opacity="0.3">
        <path opacity="0.3"
              d="M61.0279 21.7455C60.6934 22.1251 60.115 22.1703 59.7263 21.8359C58.9852 21.1851 58.1988 20.5614 57.3944 19.9739C56.9877 19.6757 56.8973 19.1153 57.1865 18.6995C57.1865 18.6905 57.1955 18.6905 57.1955 18.6814C57.4938 18.2747 58.0723 18.1843 58.479 18.4826C59.3196 19.0972 60.1511 19.757 60.9284 20.4439C61.29 20.7603 61.3442 21.2845 61.073 21.6641C61.073 21.7003 61.0459 21.7184 61.0279 21.7455ZM53.309 17.3889C52.4323 16.9189 51.5375 16.476 50.6246 16.0874C50.1546 15.8885 49.9467 15.3462 50.1455 14.8762C50.3534 14.4062 50.8867 14.1983 51.3567 14.3972C52.3057 14.813 53.2548 15.2739 54.1767 15.771C54.6196 16.0151 54.7913 16.5664 54.5473 17.0183C54.5292 17.0545 54.5111 17.0816 54.493 17.1087C54.2309 17.4883 53.7248 17.6149 53.309 17.3889ZM46.0601 14.4695C45.1111 14.2074 44.1259 13.9814 43.1588 13.8006C42.6617 13.7103 42.3273 13.2312 42.4267 12.7251C42.5171 12.228 42.9961 11.8935 43.5023 11.993C44.5236 12.1828 45.554 12.4178 46.5573 12.698C47.0453 12.8335 47.3346 13.3397 47.199 13.8278C47.1719 13.9362 47.1267 14.0266 47.0634 14.108C46.8465 14.4243 46.4488 14.578 46.0601 14.4695ZM38.3503 13.2493C37.3651 13.2041 36.3619 13.2041 35.3676 13.2403C34.8615 13.2583 34.4276 12.8697 34.4095 12.3545C34.3915 11.8483 34.7801 11.4145 35.2953 11.3964C36.3347 11.3512 37.3922 11.3603 38.4317 11.4055C38.9378 11.4326 39.3355 11.8574 39.3084 12.3635C39.2994 12.5443 39.2361 12.716 39.1457 12.8516C38.9649 13.1047 38.6757 13.2583 38.3503 13.2493ZM30.5592 13.7735C29.583 13.9453 28.6068 14.1712 27.6488 14.4243C27.1607 14.5599 26.6545 14.2616 26.519 13.7735C26.3834 13.2855 26.6726 12.7793 27.1697 12.6437C28.173 12.3726 29.2034 12.1376 30.2338 11.9568C30.7309 11.8664 31.2099 12.2008 31.3003 12.698C31.3455 12.951 31.2822 13.1951 31.1467 13.3939C31.0111 13.5837 30.8032 13.7283 30.5592 13.7735ZM23.0753 16.006C22.1624 16.3947 21.2586 16.8285 20.3818 17.2895C19.9299 17.5245 19.3786 17.3528 19.1345 16.9099C18.8995 16.458 19.0712 15.9066 19.5141 15.6626C20.4361 15.1745 21.3851 14.7226 22.3432 14.3158C22.8132 14.117 23.3555 14.3339 23.5543 14.8039C23.6809 15.1112 23.6357 15.4456 23.4639 15.6897C23.3645 15.8253 23.238 15.9337 23.0753 16.006ZM1.36487 42.3984C0.867755 42.308 0.533331 41.8199 0.632754 41.3228C0.822562 40.3015 1.0666 39.2711 1.34679 38.2678C1.48237 37.7797 1.98853 37.4905 2.4766 37.6261C2.96468 37.7616 3.25391 38.2678 3.11834 38.7559C2.85622 39.714 2.62122 40.6901 2.44045 41.6572C2.41333 41.7928 2.35911 41.9103 2.2868 42.0188C2.08795 42.308 1.72641 42.4617 1.36487 42.3984ZM16.2784 19.8474C15.4739 20.4258 14.6876 21.0495 13.9464 21.6912C13.5578 22.0257 12.9793 21.9805 12.6449 21.5918C12.3105 21.2032 12.3557 20.6247 12.7443 20.2903C13.5307 19.6124 14.3622 18.9526 15.2028 18.347C15.6185 18.0487 16.188 18.1391 16.4862 18.5549C16.7212 18.8803 16.7122 19.3141 16.4953 19.6214C16.432 19.7118 16.3597 19.7841 16.2784 19.8474ZM3.52507 34.6705C3.05507 34.4716 2.84718 33.9203 3.04603 33.4593C3.4618 32.5013 3.92276 31.5613 4.41988 30.6393C4.66391 30.1874 5.2243 30.0247 5.66718 30.2688C6.11007 30.5128 6.2818 31.0732 6.03777 31.5161C5.56776 32.3838 5.12488 33.2876 4.72719 34.1915C4.70007 34.2457 4.67296 34.2999 4.6368 34.3541C4.4018 34.7066 3.9318 34.8513 3.52507 34.6705ZM10.5028 25.0987C9.852 25.8399 9.22835 26.6262 8.64085 27.4216C8.34258 27.8284 7.76411 27.9187 7.35738 27.6205C6.95065 27.3222 6.86027 26.7618 7.1495 26.3461C7.1495 26.337 7.15853 26.337 7.15853 26.328C7.77315 25.4874 8.43296 24.6649 9.11988 23.8785C9.45431 23.4989 10.0328 23.4537 10.4214 23.7882C10.783 24.1045 10.8372 24.6287 10.566 25.0084C10.548 25.0536 10.5299 25.0807 10.5028 25.0987Z"
              fill="url(#paint1_linear)"/>
        <path opacity="0.3"
              d="M1.67212 48.4539C1.78058 48.3093 1.83481 48.1286 1.83481 47.9297C1.83481 47.4597 1.85289 46.9716 1.87097 46.4926C1.89808 45.9864 1.50039 45.5526 0.994233 45.5345C0.488078 45.5074 0.0542303 45.9051 0.0361534 46.4112C0.00903792 46.9084 0 47.4236 0 47.9207C0 48.4268 0.406732 48.8426 0.912887 48.8426C1.22923 48.8426 1.50039 48.6889 1.67212 48.4539Z"
              fill="url(#paint2_linear)"/>
    </g>
    <g opacity="0.3">
        <path opacity="0.3"
              d="M12.4998 74.3309C12.7528 73.9694 12.7167 73.4633 12.3913 73.1469C12.0478 72.8125 11.7134 72.469 11.388 72.1256C11.0355 71.755 10.4571 71.7369 10.0865 72.0894C9.71591 72.4419 9.69783 73.0204 10.0503 73.3909C10.3938 73.7525 10.7553 74.114 11.1078 74.4665C11.4694 74.819 12.0569 74.81 12.4094 74.4484C12.4365 74.4123 12.4726 74.3671 12.4998 74.3309Z"
              fill="url(#paint3_linear)"/>
        <path opacity="0.3"
              d="M65.7272 70.7422C65.4109 71.1399 64.8324 71.2122 64.4347 70.9049C64.0371 70.5885 63.9647 70.0191 64.2721 69.6124C64.8686 68.8531 65.438 68.0487 65.9803 67.2262C66.2515 66.8014 66.8299 66.6839 67.2548 66.9551C67.6796 67.2353 67.7971 67.8047 67.5259 68.2295C67.2909 68.591 67.0559 68.9345 66.8119 69.287C66.4594 69.7841 66.0978 70.2722 65.7272 70.7422ZM68.7461 64.2978C68.2851 64.0808 68.0953 63.5295 68.3122 63.0685C68.728 62.1828 69.1167 61.2789 69.4601 60.366C69.6409 59.887 70.1651 59.652 70.6442 59.8237C71.1232 60.0045 71.3582 60.5287 71.1775 61.0077C70.8159 61.9658 70.4092 62.9239 69.9753 63.8549C69.9482 63.9001 69.9301 63.9453 69.894 63.9904C69.6409 64.352 69.1619 64.4966 68.7461 64.2978ZM62.383 74.4841C61.6509 75.1982 60.8736 75.8941 60.0782 76.5449C59.6895 76.8703 59.102 76.807 58.7857 76.4183C58.4603 76.0297 58.5236 75.4422 58.9122 75.1258C59.6624 74.5112 60.4036 73.8514 61.0995 73.1735C61.4611 72.821 62.0486 72.8301 62.4011 73.1916C62.7174 73.517 62.7446 74.0051 62.4915 74.3576C62.4644 74.3937 62.4282 74.4389 62.383 74.4841ZM71.5119 56.9043C71.0148 56.7958 70.7075 56.2987 70.8159 55.8016C71.0328 54.8525 71.2046 53.8764 71.3401 52.9183C71.4124 52.4122 71.8734 52.0597 72.3796 52.132C72.8857 52.2043 73.2382 52.6652 73.1659 53.1714C73.0213 54.1837 72.8405 55.205 72.6146 56.2083C72.5875 56.3258 72.5332 56.4433 72.4699 56.5337C72.2621 56.832 71.8915 56.9947 71.5119 56.9043ZM56.0018 79.4462C55.1341 79.9795 54.2213 80.4857 53.3084 80.9466C52.8564 81.1726 52.3051 80.9918 52.0701 80.5399C51.8441 80.088 52.0249 79.5366 52.4768 79.3016C53.3445 78.8587 54.2122 78.3797 55.0347 77.8735C55.4686 77.6114 56.038 77.747 56.3001 78.1809C56.499 78.5062 56.4718 78.9039 56.273 79.1932C56.2007 79.2926 56.1103 79.383 56.0018 79.4462ZM48.6807 82.8899C47.7136 83.2243 46.7193 83.5136 45.7251 83.7666C45.228 83.8932 44.7309 83.5949 44.6043 83.0978C44.4778 82.6007 44.7761 82.1036 45.2732 81.977C46.2132 81.742 47.1622 81.4618 48.0841 81.1455C48.5632 80.9828 49.0874 81.2359 49.2501 81.7149C49.3495 82.0041 49.2953 82.3114 49.1326 82.5464C49.0332 82.7091 48.8705 82.8266 48.6807 82.8899ZM40.7901 84.6614C39.7687 84.7789 38.7293 84.8422 37.708 84.8693C37.2018 84.8874 36.777 84.4807 36.7589 83.9745C36.7408 83.4684 37.1476 83.0436 37.6537 83.0255C38.6299 82.9984 39.6151 82.9351 40.5822 82.8266C41.0884 82.7724 41.5403 83.1339 41.5945 83.6401C41.6216 83.8751 41.5584 84.092 41.4318 84.2728C41.2962 84.4807 41.0612 84.6343 40.7901 84.6614ZM32.7007 84.6614C31.6793 84.553 30.6489 84.3903 29.6456 84.1914C29.1485 84.092 28.8231 83.613 28.9226 83.1068C29.022 82.6097 29.501 82.2843 30.0072 82.3837C30.9653 82.5736 31.9414 82.7182 32.9085 82.8266C33.4147 82.8809 33.7762 83.3328 33.722 83.8389C33.7039 84.0016 33.6497 84.1463 33.5593 84.2638C33.3695 84.5439 33.0441 84.7066 32.7007 84.6614ZM24.801 82.8899C23.8339 82.5555 22.8668 82.1759 21.9268 81.7601C21.4658 81.5522 21.2489 81.0099 21.4568 80.5489C21.6647 80.088 22.207 79.871 22.6679 80.0789C23.5628 80.4766 24.4756 80.8382 25.3976 81.1545C25.8766 81.3172 26.1297 81.8414 25.967 82.3205C25.9399 82.4018 25.8947 82.4832 25.8495 82.5464C25.6235 82.8809 25.1987 83.0255 24.801 82.8899ZM17.4889 79.4282C16.8472 79.0305 16.2054 78.6147 15.5908 78.1809C15.3649 78.0272 15.1479 77.8645 14.931 77.7018C14.5243 77.4035 14.4249 76.8251 14.7322 76.4183C15.0304 76.0116 15.6089 75.9212 16.0156 76.2195C16.2235 76.3732 16.4314 76.5268 16.6483 76.6714C17.2358 77.0872 17.8414 77.4849 18.456 77.8555C18.8899 78.1176 19.0254 78.687 18.7543 79.1209C18.7452 79.1389 18.7362 79.157 18.7272 79.166C18.447 79.5728 17.9047 79.6812 17.4889 79.4282Z"
              fill="url(#paint4_linear)"/>
        <path opacity="0.3"
              d="M73.3466 48.6705C73.455 48.5169 73.5092 48.3361 73.5092 48.1463C73.5092 47.6492 73.5002 47.143 73.4821 46.6369C73.4641 46.1307 73.0302 45.733 72.5241 45.7511C72.0179 45.7692 71.6202 46.203 71.6383 46.7092C71.6564 47.1882 71.6654 47.6672 71.6654 48.1463C71.6654 48.6524 72.0812 49.0682 72.5873 49.0682C72.9037 49.0682 73.1748 48.9145 73.3466 48.6705Z"
              fill="url(#paint5_linear)"/>
    </g>
    <path d="M62.2027 37.5085C62.1485 37.3278 61.9949 37.2103 61.8141 37.1922L56.5898 36.8849C55.4058 34.7428 53.8783 32.7724 52.0254 31.0731L52.9564 25.9303C52.9925 25.7495 52.9021 25.5687 52.7395 25.4783L47.2621 22.4052C47.0994 22.3149 46.9006 22.3329 46.765 22.4595L42.8604 25.9393C40.4471 25.2433 37.9706 24.9631 35.5212 25.0626L32.5385 20.7602C32.43 20.6066 32.2492 20.5433 32.0685 20.5885L26.0217 22.2877C25.8409 22.3329 25.7234 22.4956 25.7054 22.6764L25.3981 27.9006C23.2559 29.0847 21.2855 30.6122 19.5863 32.4651L14.4615 31.5431C14.2807 31.507 14.1 31.5974 14.0096 31.7601L10.9365 37.2374C10.8461 37.4001 10.8642 37.5989 10.9907 37.7345L14.4705 41.6391C13.7746 44.0524 13.4944 46.5289 13.5938 48.9784L9.29149 51.9611C9.13784 52.0695 9.07457 52.2503 9.11976 52.4311L10.819 58.4778C10.8642 58.6586 11.0269 58.7761 11.2077 58.7942L16.4319 59.1015C17.6159 61.2436 19.1434 63.214 20.9963 64.9132L20.0654 70.0561C20.0292 70.2369 20.1196 70.4176 20.2823 70.508L25.7596 73.5811C25.9223 73.6715 26.1211 73.6534 26.2567 73.5269L30.1613 70.0471C32.5746 70.743 35.0512 71.0232 37.5006 70.9238L40.4833 75.2261C40.5917 75.3798 40.7725 75.443 40.9533 75.3978L47 73.6986C47.1808 73.6534 47.2983 73.4907 47.3164 73.3099L47.6237 68.0857C49.7658 66.9017 51.7362 65.3742 53.4354 63.5213L58.5783 64.4522C58.7591 64.4884 58.9398 64.398 59.0302 64.2353L62.1033 58.758C62.1937 58.5953 62.1756 58.3965 62.0491 58.2609L58.5693 54.3563C59.2652 51.943 59.5454 49.4664 59.446 47.017L63.7483 44.0343C63.902 43.9259 63.9652 43.7451 63.92 43.5643L62.2027 37.5085Z"
          fill="url(#paint6_linear)"/>
    <path opacity="0.56"
          d="M41.089 52.3322C38.6938 54.8539 34.6898 54.9624 32.168 52.5672C30.9478 51.4103 30.2428 49.8376 30.1976 48.1564C30.1524 46.4753 30.7671 44.8664 31.924 43.6462C34.3192 41.1245 38.3232 41.016 40.845 43.4112C43.1407 45.5895 43.439 49.0964 41.6675 51.6181C41.4957 51.8622 41.3059 52.1062 41.089 52.3322ZM31.6709 48.1203C31.7071 49.4128 32.2403 50.6149 33.1803 51.5007C35.1146 53.3355 38.1877 53.2541 40.0225 51.3199C41.8573 49.3856 41.7759 46.3126 39.8417 44.4778C37.9075 42.6429 34.8344 42.7243 32.9996 44.6585C32.8369 44.8303 32.6832 45.0201 32.5476 45.2099C31.9511 46.0595 31.6438 47.0628 31.6709 48.1203Z"
          fill="white"/>
    <path opacity="0.56"
          d="M49.0611 56.9599C49.3684 56.526 49.6486 56.0741 49.9107 55.6132C49.992 55.4686 50.0734 55.3149 50.1547 55.1703C50.5343 54.4291 50.8597 53.6699 51.1218 52.8835C51.1218 52.8745 51.1309 52.8655 51.1309 52.8474C51.1399 52.8203 51.149 52.7841 51.158 52.757C51.1761 52.6937 51.1941 52.6395 51.2122 52.5762C51.2574 52.4226 51.2032 52.2599 51.0766 52.1695C51.0495 52.1514 51.0134 52.1334 50.9772 52.1153C50.7874 52.052 50.5795 52.1605 50.5163 52.3593C50.209 53.3626 49.7932 54.3297 49.2689 55.2516C46.702 59.8161 42.0562 62.5005 37.1845 62.7716C34.473 62.9253 31.6891 62.3288 29.1493 60.9007C28.7064 60.6476 28.2726 60.3764 27.8658 60.0872C25.091 58.1349 23.0845 55.3149 22.1626 52.0068C21.096 48.2016 21.5751 44.2156 23.5003 40.772C27.4953 33.6587 36.5157 31.1279 43.6289 35.1229C44.0628 35.367 44.4876 35.6381 44.9034 35.9274C46.6749 37.1747 48.1482 38.7926 49.2238 40.6726C49.2509 40.7178 49.287 40.7629 49.3322 40.7901C49.4407 40.8714 49.5943 40.8804 49.7299 40.8081C49.9107 40.7087 49.9649 40.4828 49.8655 40.302C48.7357 38.3316 47.1901 36.6324 45.3282 35.3218C44.9034 35.0235 44.4514 34.7433 43.9905 34.4812C36.5247 30.2964 27.0524 32.9537 22.8585 40.4195C20.8249 44.0349 20.3277 48.2197 21.4485 52.2147C22.4247 55.6855 24.5306 58.6501 27.441 60.7018C27.8749 61.0091 28.3268 61.2893 28.7968 61.5514C32.4122 63.5851 36.597 64.0822 40.592 62.9614C44.0447 61.9763 47.0093 59.8703 49.0611 56.9599Z"
          fill="white"/>
    <g opacity="0.3">
        <path opacity="0.3"
              d="M98.9808 9.92348C99.1255 9.72463 99.1255 9.44444 98.9628 9.24559C98.6645 8.86598 98.3481 8.4954 98.0228 8.13386C97.8149 7.89886 97.4533 7.88078 97.2183 8.08867C96.9833 8.29655 96.9653 8.6581 97.1731 8.8931C97.4804 9.23656 97.7787 9.58905 98.068 9.95059C98.2668 10.1946 98.6193 10.2398 98.8633 10.041C98.9176 10.0048 98.9537 9.95963 98.9808 9.92348Z"
              fill="url(#paint7_linear)"/>
        <path opacity="0.3"
              d="M95.9162 6.81427C95.7083 7.04927 95.3558 7.07639 95.1117 6.8685C94.5152 6.35331 93.8825 5.85619 93.2317 5.40427C93.0962 5.30484 92.9606 5.21446 92.816 5.12408C92.5539 4.95234 92.4906 4.59984 92.6623 4.33773C92.834 4.09369 93.1865 4.01234 93.4487 4.18407C93.5933 4.2835 93.7379 4.38292 93.8825 4.48234C94.5604 4.96138 95.2292 5.47657 95.8529 6.01888C96.0789 6.20869 96.115 6.54312 95.9433 6.77812C95.9433 6.77812 95.9342 6.7962 95.9162 6.81427ZM90.3304 3.6508C89.4717 3.21696 88.586 2.8283 87.6821 2.50292C87.3838 2.39446 87.2302 2.06907 87.3386 1.77984C87.4471 1.49061 87.7725 1.32791 88.0708 1.43638C89.0108 1.77984 89.9508 2.17753 90.8456 2.63849C91.1258 2.78311 91.2342 3.12657 91.0987 3.40677C91.0896 3.43388 91.0715 3.45196 91.0535 3.47907C90.8998 3.70503 90.5925 3.78638 90.3304 3.6508ZM84.9163 1.69849C83.9854 1.49061 83.0183 1.33695 82.0692 1.23753C81.7529 1.21042 81.5269 0.93022 81.5631 0.613874C81.5902 0.297527 81.8704 0.0715672 82.1867 0.107721C83.19 0.207144 84.1933 0.369836 85.1785 0.586759C85.4858 0.659067 85.6756 0.957337 85.6123 1.26464C85.5942 1.33695 85.5671 1.40926 85.5219 1.46349C85.3773 1.6533 85.1513 1.75272 84.9163 1.69849ZM79.1859 1.13811C78.2279 1.16522 77.2607 1.24657 76.3117 1.39118C76.0044 1.43638 75.7152 1.21945 75.6609 0.912145C75.6157 0.604837 75.8236 0.315604 76.14 0.261374C77.1342 0.107719 78.1465 0.0263737 79.1588 -0.000741733C79.4752 -0.00978021 79.7373 0.243298 79.7373 0.550606C79.7373 0.677145 79.7011 0.794644 79.6379 0.894067C79.5294 1.03868 79.3667 1.12907 79.1859 1.13811ZM73.4827 1.98772C72.5607 2.2408 71.6388 2.56619 70.753 2.92772C70.4638 3.04522 70.1294 2.90965 70.0119 2.62042C69.8944 2.33119 70.03 1.99676 70.3192 1.87926C71.2502 1.49061 72.2082 1.16522 73.1754 0.894067C73.4736 0.812721 73.79 0.984451 73.8713 1.29176C73.9165 1.46349 73.8804 1.63522 73.79 1.7708C73.7267 1.87022 73.6182 1.95157 73.4827 1.98772ZM68.168 4.20215C67.3365 4.67215 66.523 5.20542 65.7548 5.78388C65.5017 5.97369 65.1492 5.91946 64.9594 5.66638C64.7696 5.41331 64.8238 5.0608 65.0769 4.871C65.8813 4.27446 66.7309 3.71407 67.6077 3.21696C67.8788 3.0633 68.2313 3.15369 68.385 3.43388C68.4934 3.63273 68.4753 3.86773 68.3578 4.03946C68.3036 4.10273 68.2403 4.15696 68.168 4.20215ZM63.5494 7.64581C62.8625 8.30562 62.2026 9.01966 61.5971 9.76985C61.3982 10.0139 61.0367 10.05 60.8017 9.8512C60.5576 9.65235 60.5215 9.29985 60.7203 9.05581C61.353 8.26947 62.049 7.52831 62.7721 6.83234C62.998 6.61542 63.3596 6.62446 63.5765 6.85042C63.7663 7.04927 63.7844 7.35658 63.6307 7.5735C63.6036 7.59158 63.5765 7.61869 63.5494 7.64581ZM57.7828 14.9218C57.5026 14.7862 57.3761 14.4518 57.5117 14.1626C57.8822 13.3762 58.298 12.5989 58.7499 11.8397C58.8223 11.7222 58.8855 11.6137 58.9578 11.4962C59.1115 11.225 59.473 11.1527 59.7442 11.3154C60.0063 11.4781 60.0876 11.8306 59.925 12.1018C59.8617 12.2102 59.7894 12.3097 59.7261 12.4181C59.2923 13.1322 58.8946 13.8824 58.5421 14.6326C58.524 14.6597 58.5149 14.6958 58.4878 14.7229C58.3342 14.9579 58.0359 15.0393 57.7828 14.9218Z"
              fill="url(#paint8_linear)"/>
    </g>
    <g opacity="0.3">
        <path opacity="0.3"
              d="M99.6496 38.9275C99.0711 39.7319 98.4384 40.5092 97.7696 41.2323C97.5527 41.4583 97.2002 41.4764 96.9652 41.2594C96.7302 41.0425 96.7211 40.69 96.938 40.455C97.5798 39.7681 98.1854 39.0269 98.7367 38.2587C98.9175 38.0056 99.279 37.9514 99.5321 38.1321C99.7671 38.3219 99.8304 38.6744 99.6496 38.9275ZM100.472 36.6408C100.201 36.4871 100.102 36.1437 100.246 35.8725C100.707 35.05 101.114 34.1823 101.466 33.3056C101.584 33.0163 101.918 32.8717 102.207 32.9892C102.497 33.1067 102.641 33.4412 102.524 33.7304C102.153 34.6433 101.719 35.5471 101.24 36.4148C101.231 36.4329 101.222 36.451 101.204 36.469C101.042 36.704 100.725 36.7854 100.472 36.6408ZM95.6094 43.2931C94.8502 43.9348 94.0457 44.5314 93.2232 45.0737C92.9611 45.2454 92.6086 45.1731 92.4369 44.911C92.2652 44.6489 92.3375 44.2964 92.5996 44.1246C93.3859 43.6094 94.1542 43.04 94.8773 42.4254C95.1213 42.2266 95.4738 42.2537 95.6817 42.4887C95.8534 42.6875 95.8534 42.9767 95.7088 43.1846C95.6817 43.2208 95.6455 43.2569 95.6094 43.2931ZM102.777 31.3081C102.47 31.2267 102.298 30.9104 102.379 30.6121C102.623 29.6992 102.813 28.7683 102.949 27.8283C102.994 27.521 103.283 27.304 103.59 27.3492C103.898 27.3944 104.115 27.6836 104.069 27.991C103.934 28.9671 103.726 29.9523 103.473 30.9104C103.455 30.9737 103.428 31.0369 103.392 31.0912C103.256 31.281 103.012 31.3713 102.777 31.3081ZM90.6382 46.5469C89.7525 46.9808 88.8305 47.3694 87.8905 47.7039C87.5923 47.8033 87.2669 47.6496 87.1675 47.3514C87.059 47.0531 87.2217 46.7277 87.5199 46.6283C88.4148 46.3119 89.2915 45.9504 90.1321 45.5256C90.4123 45.39 90.7557 45.4985 90.8913 45.7877C90.9907 45.9775 90.9636 46.2035 90.8461 46.3662C90.8009 46.4385 90.7286 46.5018 90.6382 46.5469ZM85.0344 48.5173C84.0672 48.7343 83.073 48.8879 82.0969 48.9783C81.7805 49.0054 81.5094 48.7795 81.4732 48.4631C81.4461 48.1468 81.6721 47.8756 81.9884 47.8394C82.9284 47.7491 83.8684 47.6045 84.7903 47.3966C85.0976 47.3333 85.3959 47.5231 85.4682 47.8304C85.5044 47.9931 85.4682 48.1558 85.3778 48.2823C85.2965 48.3998 85.179 48.4812 85.0344 48.5173ZM79.1232 49.0777C78.129 49.0506 77.1347 48.9693 76.1586 48.8246C75.8513 48.7795 75.6344 48.4902 75.6795 48.1829C75.7247 47.8756 76.014 47.6587 76.3213 47.7039C77.2522 47.8394 78.2013 47.9208 79.1503 47.9479C79.4667 47.957 79.7107 48.2191 79.7017 48.5264C79.7017 48.6439 79.6655 48.7523 79.6022 48.8427C79.4938 48.9873 79.3221 49.0868 79.1232 49.0777Z"
              fill="url(#paint9_linear)"/>
        <path opacity="0.3"
              d="M104.205 25.3158C104.268 25.2254 104.305 25.1169 104.305 24.9994C104.314 24.5113 104.305 24.0233 104.287 23.5442C104.277 23.2279 104.006 22.9838 103.699 23.0019C103.383 23.02 103.139 23.2821 103.157 23.5894C103.175 24.0413 103.184 24.5113 103.175 24.9723C103.166 25.2887 103.419 25.5417 103.735 25.5508C103.925 25.5598 104.097 25.4604 104.205 25.3158Z"
              fill="url(#paint10_linear)"/>
    </g>
    <path d="M96.7841 17.4343C96.7479 17.3168 96.6485 17.2354 96.522 17.2264L93.0241 17.0185C92.2377 15.5904 91.2074 14.2708 89.9691 13.132L90.5927 9.68831C90.6108 9.57081 90.5566 9.44427 90.4481 9.39004L86.7875 7.32927C86.6791 7.266 86.5435 7.28408 86.4531 7.36542L83.841 9.68831C82.2231 9.21831 80.5691 9.0285 78.9331 9.10081L76.9356 6.21753C76.8633 6.11811 76.7368 6.07292 76.6193 6.10004L72.57 7.23888C72.4525 7.27503 72.3712 7.37446 72.3621 7.501L72.1543 10.9989C70.7262 11.7852 69.4066 12.8156 68.2677 14.0539L64.824 13.4302C64.7065 13.4122 64.58 13.4664 64.5258 13.5749L62.465 17.2354C62.4017 17.3439 62.4198 17.4795 62.5012 17.5699L64.824 20.182C64.354 21.7999 64.1642 23.4539 64.2365 25.0899L61.3533 27.0874C61.2538 27.1597 61.2087 27.2862 61.2358 27.4037L62.3746 31.453C62.4108 31.5705 62.5102 31.6518 62.6367 31.6608L66.1346 31.8687C66.921 33.2968 67.9514 34.6164 69.1896 35.7553L68.566 39.1989C68.5479 39.3164 68.6021 39.443 68.7106 39.4972L72.3712 41.558C72.4796 41.6212 72.6152 41.6032 72.7056 41.5218L75.3177 39.1989C76.9356 39.6689 78.5897 39.8587 80.2256 39.7864L82.2231 42.6697C82.2954 42.7691 82.422 42.8143 82.5395 42.7872L86.5887 41.6484C86.7062 41.6122 86.7875 41.5128 86.7966 41.3863L87.0045 37.8884C88.4326 37.102 89.7522 36.0716 90.891 34.8334L94.3347 35.457C94.4522 35.4751 94.5787 35.4209 94.6329 35.3124L96.6937 31.6518C96.757 31.5433 96.7389 31.4078 96.6576 31.3174L94.3347 28.7053C94.8047 27.0874 94.9945 25.4333 94.9222 23.7974L97.8055 21.7999C97.9049 21.7276 97.9501 21.601 97.923 21.4835L96.7841 17.4343Z"
          fill="url(#paint11_linear)"/>
    <path opacity="0.56"
          d="M82.7207 27.4034C81.9343 28.235 80.8587 28.714 79.7108 28.7411C78.563 28.7682 77.4693 28.3525 76.6378 27.5661C74.9205 25.9392 74.8481 23.2096 76.4751 21.4923C78.111 19.7749 80.8316 19.7026 82.5489 21.3296C83.3805 22.1159 83.8595 23.1825 83.8866 24.3303C83.9137 25.2613 83.6426 26.1561 83.1093 26.9063C83.0009 27.078 82.8653 27.2498 82.7207 27.4034ZM77.4241 26.7346C78.0387 27.313 78.8432 27.6203 79.6837 27.6023C80.5243 27.5842 81.3107 27.2317 81.8982 26.6171C82.4766 26.0025 82.7839 25.198 82.7658 24.3575C82.7478 23.5169 82.3953 22.7305 81.7807 22.143C80.5153 20.9409 78.5087 20.9951 77.3066 22.2605C77.1981 22.378 77.0987 22.4955 77.0083 22.6221C76.1226 23.8875 76.2672 25.65 77.4241 26.7346Z"
          fill="white"/>
    <path opacity="0.56"
          d="M88.2612 30.6212C88.4691 30.323 88.6589 30.0157 88.8397 29.6993C89.1922 29.0666 89.4904 28.3887 89.7074 27.7018C89.7164 27.6747 89.7254 27.6386 89.7345 27.6114C89.8068 27.3674 89.7164 27.1143 89.5176 26.9787C89.4724 26.9426 89.4181 26.9155 89.3549 26.8974C89.0566 26.807 88.7402 26.9697 88.6408 27.277C88.442 27.9278 88.1708 28.5514 87.8364 29.148C87.8183 29.1841 87.8002 29.2112 87.7822 29.2474C86.9777 30.6484 85.857 31.7872 84.5193 32.6097C83.7962 33.0526 83.0008 33.4051 82.1602 33.6491C82.1512 33.6491 82.1422 33.6491 82.1422 33.6582C82.1241 33.6672 82.097 33.6672 82.0789 33.6763C79.6204 34.3632 77.0354 34.0559 74.8029 32.8086C74.5137 32.6459 74.2335 32.4741 73.9714 32.2843C72.1727 31.0189 70.8802 29.1932 70.2746 27.0511C69.5877 24.5926 69.895 22.0076 71.1423 19.7751C72.3896 17.5516 74.4414 15.9337 76.8998 15.2468C79.3583 14.5599 81.9433 14.8672 84.1758 16.1145C84.456 16.2772 84.7362 16.4489 84.9983 16.6297C86.1462 17.4341 87.1043 18.4826 87.8002 19.7028C87.8454 19.7751 87.8997 19.8383 87.9629 19.8835C88.1347 20.0101 88.3787 20.0282 88.5685 19.9107C88.8397 19.757 88.9391 19.4045 88.7764 19.1333C87.9991 17.7685 86.9235 16.6026 85.6491 15.6987C85.3508 15.4908 85.0435 15.301 84.7272 15.1203C82.2325 13.7193 79.3402 13.3758 76.5925 14.1441C73.8358 14.9214 71.5491 16.711 70.1481 19.2057C68.7471 21.7003 68.4037 24.5926 69.1719 27.3403C69.8408 29.7355 71.296 31.7782 73.3025 33.1972C73.6008 33.4051 73.9081 33.6039 74.2335 33.7847C79.0962 36.5053 85.1429 35.0591 88.2612 30.6212Z"
          fill="white"/>
    <path d="M174.153 18.9448V244.934C174.153 246.425 173.548 247.772 172.517 248.603C171.74 249.236 170.755 249.643 169.67 249.598L167.194 249.507C164.69 249.417 162.439 247.121 162.439 244.509V19.3244L174.153 18.9448Z"
          fill="url(#paint12_linear)"/>
    <path d="M178.862 10.8371C178.862 14.6513 176.928 18.0679 174.009 20.0744C172.364 21.2042 170.411 21.8911 168.323 21.9544C167.284 21.9815 166.281 21.864 165.341 21.6019C164.627 21.4121 163.949 21.1319 163.307 20.7975C163.144 20.7071 162.982 20.6257 162.828 20.5263C159.845 18.7277 157.857 15.4105 157.857 11.5421C157.857 5.61284 162.539 0.641674 168.323 0.424751C174.135 0.207828 178.862 4.87168 178.862 10.8371Z"
          fill="url(#paint13_linear)"/>
    <path opacity="0.3"
          d="M174.036 10.4481C174.036 13.4127 172.526 16.07 170.258 17.6246C168.983 18.5014 167.465 19.0346 165.838 19.0798C165.033 19.1069 164.247 19.0075 163.515 18.8087C162.964 18.655 162.43 18.4471 161.933 18.185C161.807 18.1127 161.68 18.0494 161.563 17.9681C159.24 16.5671 157.703 13.9912 157.703 10.9904C157.703 6.38077 161.337 2.5123 165.838 2.34961C170.357 2.17788 174.036 5.80231 174.036 10.4481Z"
          fill="url(#paint14_linear)"/>
    <path d="M89.4631 27.0158L90.3669 27.4768L107.414 17.0283L190.875 29.3749L202.553 30.7126L201.866 32.8908C201.775 33.1258 188.489 42.8061 188.489 42.8061L198.829 56.3728L198.332 57.7647C198.268 57.9274 198.115 58.0269 197.943 58.0088L187.205 56.3457L103.69 43.4116C103.455 43.3755 103.238 43.258 103.075 43.0863L89.6438 29.0224C89.4721 28.8416 89.3727 28.5795 89.3908 28.3174L89.4631 27.0158Z"
          fill="url(#paint15_linear)"/>
    <path d="M108.353 16.1155L202.552 30.7036C202.643 30.7126 202.661 30.8391 202.589 30.8934L189.32 40.6007C189.139 40.7363 189.094 40.9893 189.212 41.1791L198.702 56.174C198.747 56.2463 198.684 56.3457 198.603 56.3367L104.34 41.7305C104.069 41.6853 103.825 41.5588 103.626 41.3599L89.5804 27.1334C89.5172 27.0701 89.5352 26.9707 89.6075 26.9255L107.495 16.2781C107.757 16.1335 108.055 16.0703 108.353 16.1155Z"
          fill="url(#paint16_linear)"/>
    <path d="M97.6609 115.104L98.619 115.339L112.312 101.538L193.93 94.0628L204.821 92.698C205.047 92.6709 205.246 92.8517 205.228 93.0776L205.137 94.8582C205.101 95.1022 194.752 107.313 194.752 107.313L207.623 117.789L207.469 119.226C207.451 119.398 207.325 119.524 207.162 119.542L196.65 120.428L114.852 127.352C114.626 127.37 114.391 127.315 114.201 127.189L98.3026 116.957C98.0947 116.822 97.9501 116.605 97.9049 116.352L97.6609 115.104Z"
          fill="url(#paint17_linear)"/>
    <path d="M112.99 100.453L204.984 92.6709C205.173 92.6529 205.282 92.8788 205.164 93.0234L195.032 105.054C194.897 105.216 194.906 105.478 195.059 105.623L207.46 117.644C207.523 117.708 207.487 117.807 207.397 117.816L115.078 125.625C114.816 125.643 114.554 125.58 114.319 125.444L97.7962 115.195C97.7239 115.15 97.7149 115.05 97.7781 114.996L112.222 100.806C112.43 100.598 112.701 100.48 112.99 100.453Z"
          fill="url(#paint18_linear)"/>
    <path opacity="0.56"
          d="M167.618 106.265L116.343 110.269C116.153 110.287 115.982 110.142 115.973 109.952L115.792 107.593C115.774 107.404 115.918 107.232 116.108 107.223L167.383 103.219C167.573 103.201 167.745 103.345 167.754 103.535L167.935 105.894C167.953 106.084 167.808 106.247 167.618 106.265Z"
          fill="white"/>
    <path opacity="0.56"
          d="M167.655 114.354L116.795 118.331C116.605 118.349 116.434 118.205 116.424 118.015L116.253 115.809C116.235 115.62 116.379 115.448 116.569 115.439L167.429 111.462C167.618 111.444 167.79 111.589 167.799 111.778L167.971 113.984C167.989 114.174 167.844 114.345 167.655 114.354Z"
          fill="white"/>
    <path d="M246.163 68.9997L245.169 69.3974L227.986 58.271L138.569 65.1312L126.114 65.8452L126.62 67.7976C126.701 68.0326 139.979 78.2551 139.979 78.2551L127.903 90.7282L128.31 92.102C128.355 92.2647 128.518 92.3732 128.699 92.3551L140.205 91.397L229.722 83.9584C229.975 83.9403 230.21 83.8409 230.4 83.6872L245.792 70.9249C245.991 70.7531 246.109 70.5181 246.118 70.2651L246.163 68.9997Z"
          fill="url(#paint19_linear)"/>
    <path d="M227.065 57.3308L126.304 65.7004C126.141 65.7185 126.078 65.9264 126.205 66.0258L139.283 76.0766C139.464 76.2121 139.491 76.4652 139.346 76.6369L128.048 90.5381C127.994 90.6104 128.048 90.7099 128.139 90.7008L229.18 82.3041C229.469 82.277 229.74 82.1685 229.966 81.9968L246.028 69.1079C246.091 69.0537 246.091 68.9542 246.019 68.9091L227.96 57.5386C227.689 57.376 227.381 57.3036 227.065 57.3308Z"
          fill="url(#paint20_linear)"/>
    <path opacity="0.56"
          d="M225.664 67.1369L175.581 71.0506C175.392 71.0686 175.22 70.924 175.211 70.7342L175.021 68.2848C175.003 68.095 175.148 67.9233 175.337 67.9142L225.42 64.0006C225.609 63.9825 225.781 64.1271 225.79 64.3169L225.98 66.7663C225.998 66.9561 225.853 67.1279 225.664 67.1369Z"
          fill="white"/>
    <path opacity="0.56"
          d="M225.727 75.4791L176.051 79.3656C175.862 79.3837 175.69 79.2391 175.681 79.0493L175.5 76.7626C175.482 76.5728 175.627 76.401 175.816 76.392L225.492 72.5054C225.682 72.4874 225.853 72.632 225.862 72.8218L226.043 75.1085C226.061 75.2983 225.917 75.4701 225.727 75.4791Z"
          fill="white"/>
    <path d="M168.269 42.5706C170.246 42.5706 171.848 40.9681 171.848 38.9913C171.848 37.0146 170.246 35.4121 168.269 35.4121C166.292 35.4121 164.69 37.0146 164.69 38.9913C164.69 40.9681 166.292 42.5706 168.269 42.5706Z"
          fill="url(#paint21_linear)"/>
    <path d="M168.513 40.6276C169.726 40.6276 170.71 39.6442 170.71 38.4312C170.71 37.2182 169.726 36.2349 168.513 36.2349C167.3 36.2349 166.317 37.2182 166.317 38.4312C166.317 39.6442 167.3 40.6276 168.513 40.6276Z"
          fill="url(#paint22_linear)"/>
    <path d="M167.7 78.7794C169.602 78.7794 171.144 77.2376 171.144 75.3357C171.144 73.4339 169.602 71.8921 167.7 71.8921C165.798 71.8921 164.256 73.4339 164.256 75.3357C164.256 77.2376 165.798 78.7794 167.7 78.7794Z"
          fill="url(#paint23_linear)"/>
    <path d="M167.935 76.899C169.103 76.899 170.05 75.952 170.05 74.784C170.05 73.6159 169.103 72.6689 167.935 72.6689C166.767 72.6689 165.82 73.6159 165.82 74.784C165.82 75.952 166.767 76.899 167.935 76.899Z"
          fill="url(#paint24_linear)"/>
    <path d="M167.917 111.508C169.894 111.508 171.496 109.905 171.496 107.928C171.496 105.952 169.894 104.349 167.917 104.349C165.94 104.349 164.338 105.952 164.338 107.928C164.338 109.905 165.94 111.508 167.917 111.508Z"
          fill="url(#paint25_linear)"/>
    <path d="M168.16 109.555C169.373 109.555 170.357 108.572 170.357 107.359C170.357 106.146 169.373 105.163 168.16 105.163C166.947 105.163 165.964 106.146 165.964 107.359C165.964 108.572 166.947 109.555 168.16 109.555Z"
          fill="url(#paint26_linear)"/>
    <path opacity="0.56"
          d="M157.559 33.3423L111.734 26.1115C111.544 26.0844 111.417 25.9037 111.445 25.7138L111.788 23.5175C111.815 23.3277 111.996 23.2011 112.186 23.2283L158.011 30.459C158.201 30.4862 158.327 30.6669 158.3 30.8567L157.957 33.0531C157.92 33.2429 157.749 33.3694 157.559 33.3423Z"
          fill="white"/>
    <path opacity="0.56"
          d="M155.824 40.8622L110.369 33.6857C110.179 33.6586 110.053 33.4778 110.08 33.288L110.405 31.2362C110.432 31.0464 110.613 30.9199 110.803 30.947L156.257 38.1236C156.447 38.1507 156.574 38.3314 156.547 38.5213L156.221 40.573C156.194 40.7538 156.013 40.8893 155.824 40.8622Z"
          fill="white"/>
    <path d="M172.915 249.244C172.581 249.19 172.282 249 172.092 248.72C169.263 244.643 148.782 212.801 178.284 185.243C206.285 159.076 218.767 153.915 220.909 138.089C221.162 136.236 223.684 135.874 224.452 137.574C230.219 150.273 238.896 179.738 206.493 197.86C170.746 217.853 172.879 241.091 174.37 247.726C174.551 248.602 173.801 249.398 172.915 249.244Z"
          fill="url(#paint27_linear)"/>
    <path d="M177.245 249.977C176.449 249.841 175.835 249.208 175.744 248.404C175.084 242.963 173.674 222.653 188.76 217.763C205.363 212.377 218.135 228.094 230.581 216.507C231.231 215.902 232.289 216.48 232.108 217.357C230.834 223.575 225.582 237.901 204.206 240.134C181.321 242.52 178.673 245.06 179.034 248.313C179.134 249.317 178.239 250.148 177.245 249.977Z"
          fill="url(#paint28_linear)"/>
    <path opacity="0.47"
          d="M219.409 154.195C219.065 155.334 218.632 156.41 218.134 157.467C217.637 158.525 217.095 159.555 216.498 160.567C215.911 161.58 215.278 162.565 214.6 163.514C213.922 164.472 213.218 165.403 212.467 166.298C209.485 169.904 205.942 173.049 202.073 175.698C200.148 177.017 198.105 178.21 196.062 179.304C194.047 180.389 192.113 181.609 190.251 182.928C186.527 185.586 183.11 188.686 180.11 192.139C177.1 195.591 174.533 199.415 172.481 203.5C170.429 207.585 168.947 211.96 168.152 216.47C167.347 220.98 167.239 225.599 167.754 230.163C168.269 234.728 169.462 239.211 171.089 243.522C171.134 243.649 171.071 243.784 170.954 243.83C170.836 243.875 170.7 243.821 170.646 243.694C168.866 239.401 167.564 234.891 166.94 230.263C166.615 227.949 166.47 225.617 166.489 223.276C166.525 220.935 166.715 218.603 167.103 216.289C167.853 211.671 169.309 207.161 171.36 202.949C173.403 198.728 176.051 194.814 179.106 191.271C182.161 187.728 185.641 184.546 189.446 181.808C191.344 180.443 193.333 179.186 195.394 178.066L196.912 177.234C197.418 176.963 197.906 176.674 198.403 176.385L199.145 175.951L199.868 175.49L200.591 175.029L201.305 174.55C203.203 173.266 205.029 171.892 206.755 170.392C208.481 168.892 210.126 167.292 211.627 165.566C213.145 163.857 214.537 162.022 215.793 160.115C217.041 158.199 218.162 156.165 218.984 154.05L218.993 154.032C219.038 153.924 219.165 153.861 219.273 153.906C219.382 153.978 219.436 154.096 219.409 154.195Z"
          fill="white"/>
    <path opacity="0.47"
          d="M176.557 246.27C176.594 246.081 176.585 245.9 176.585 245.71V245.15C176.594 244.779 176.603 244.408 176.612 244.038C176.639 243.297 176.684 242.556 176.738 241.814C176.856 240.332 177.036 238.859 177.289 237.395C177.796 234.466 178.573 231.565 179.856 228.862C180.498 227.516 181.275 226.223 182.225 225.048C183.165 223.873 184.303 222.852 185.587 222.056C186.879 221.27 188.325 220.728 189.808 220.475C190.549 220.348 191.308 220.276 192.058 220.267C192.809 220.249 193.568 220.303 194.309 220.393C195.059 220.484 195.782 220.619 196.514 220.737L198.702 221.125C200.157 221.387 201.612 221.668 203.067 221.966C205.978 222.544 208.87 223.177 211.771 223.71C213.226 223.972 214.682 224.207 216.146 224.361C217.61 224.506 219.083 224.56 220.53 224.388C221.976 224.235 223.395 223.819 224.669 223.132C225.953 222.445 227.082 221.496 228.095 220.438C228.167 220.357 228.294 220.357 228.366 220.429C228.447 220.502 228.447 220.628 228.375 220.7C227.363 221.794 226.206 222.788 224.877 223.52C223.557 224.253 222.075 224.705 220.584 224.876C219.083 225.057 217.583 225.003 216.101 224.858C214.618 224.714 213.145 224.479 211.681 224.216C208.761 223.683 205.869 223.06 202.959 222.499C200.057 221.93 197.138 221.387 194.228 220.954C193.505 220.863 192.772 220.809 192.049 220.818C191.326 220.818 190.594 220.881 189.88 220.999C188.452 221.234 187.069 221.74 185.822 222.481C184.584 223.231 183.481 224.207 182.559 225.337C181.628 226.467 180.86 227.723 180.227 229.043C178.944 231.682 178.148 234.556 177.615 237.449C177.353 238.904 177.154 240.368 177.027 241.832C176.964 242.565 176.91 243.306 176.874 244.038C176.856 244.408 176.847 244.779 176.838 245.141L176.829 245.692C176.829 245.873 176.82 246.062 176.865 246.243C176.892 246.334 176.829 246.424 176.738 246.451C176.648 246.478 176.557 246.424 176.53 246.325C176.548 246.316 176.548 246.288 176.557 246.27Z"
          fill="white"/>
    <defs>
        <linearGradient id="paint0_linear" x1="-14.4455" y1="282.177" x2="169.023" y2="84.1472"
                        gradientUnits="userSpaceOnUse">
            <stop stop-color="#CA476C"/>
            <stop offset="1" stop-color="#FF83A6"/>
        </linearGradient>
        <linearGradient id="paint1_linear" x1="44.7697" y1="8.85065" x2="14.5956" y2="51.7946"
                        gradientUnits="userSpaceOnUse">
            <stop stop-color="#B37CFF"/>
            <stop offset="1" stop-color="#F895E7"/>
        </linearGradient>
        <linearGradient id="paint2_linear" x1="1.81608" y1="45.9334" x2="0.0537493" y2="48.4416"
                        gradientUnits="userSpaceOnUse">
            <stop stop-color="#B37CFF"/>
            <stop offset="1" stop-color="#F895E7"/>
        </linearGradient>
        <linearGradient id="paint3_linear" x1="11.8326" y1="72.4183" x2="10.6233" y2="74.1395"
                        gradientUnits="userSpaceOnUse">
            <stop stop-color="#B37CFF"/>
            <stop offset="1" stop-color="#F895E7"/>
        </linearGradient>
        <linearGradient id="paint4_linear" x1="61.0222" y1="44.0297" x2="29.9421" y2="88.263"
                        gradientUnits="userSpaceOnUse">
            <stop stop-color="#B37CFF"/>
            <stop offset="1" stop-color="#F895E7"/>
        </linearGradient>
        <linearGradient id="paint5_linear" x1="73.4452" y1="46.1727" x2="71.7054" y2="48.6489"
                        gradientUnits="userSpaceOnUse">
            <stop stop-color="#B37CFF"/>
            <stop offset="1" stop-color="#F895E7"/>
        </linearGradient>
        <linearGradient id="paint6_linear" x1="9.63208" y1="181.391" x2="51.2262" y2="-25.0637"
                        gradientUnits="userSpaceOnUse">
            <stop stop-color="#CA476C"/>
            <stop offset="1" stop-color="#EF497A"/>
        </linearGradient>
        <linearGradient id="paint7_linear" x1="98.4884" y1="8.43924" x2="97.6283" y2="9.66335"
                        gradientUnits="userSpaceOnUse">
            <stop stop-color="#B37CFF"/>
            <stop offset="1" stop-color="#F895E7"/>
        </linearGradient>
        <linearGradient id="paint8_linear" x1="85.0841" y1="-1.71917" x2="68.2276" y2="22.2711"
                        gradientUnits="userSpaceOnUse">
            <stop stop-color="#B37CFF"/>
            <stop offset="1" stop-color="#F895E7"/>
        </linearGradient>
        <linearGradient id="paint9_linear" x1="100.559" y1="25.1472" x2="81.3198" y2="52.5289"
                        gradientUnits="userSpaceOnUse">
            <stop stop-color="#B37CFF"/>
            <stop offset="1" stop-color="#F895E7"/>
        </linearGradient>
        <linearGradient id="paint10_linear" x1="104.388" y1="23.3413" x2="103.072" y2="25.214"
                        gradientUnits="userSpaceOnUse">
            <stop stop-color="#B37CFF"/>
            <stop offset="1" stop-color="#F895E7"/>
        </linearGradient>
        <linearGradient id="paint11_linear" x1="46.4851" y1="188.796" x2="88.0791" y2="-17.6588"
                        gradientUnits="userSpaceOnUse">
            <stop stop-color="#CA476C"/>
            <stop offset="1" stop-color="#EF497A"/>
        </linearGradient>
        <linearGradient id="paint12_linear" x1="167.191" y1="26.0767" x2="169.604" y2="257.694"
                        gradientUnits="userSpaceOnUse">
            <stop stop-color="#CB236D"/>
            <stop offset="1" stop-color="#523842"/>
        </linearGradient>
        <linearGradient id="paint13_linear" x1="155.962" y1="-9.56328" x2="181.85" y2="33.7702"
                        gradientUnits="userSpaceOnUse">
            <stop stop-color="#CB236D"/>
            <stop offset="1" stop-color="#523842"/>
        </linearGradient>
        <linearGradient id="paint14_linear" x1="156.232" y1="-5.4155" x2="176.359" y2="28.2751"
                        gradientUnits="userSpaceOnUse">
            <stop stop-color="#644352"/>
            <stop offset="1" stop-color="#F895E7"/>
        </linearGradient>
        <linearGradient id="paint15_linear" x1="151.026" y1="-7.57612" x2="140.494" y2="69.8356"
                        gradientUnits="userSpaceOnUse">
            <stop stop-color="#FDF53F"/>
            <stop offset="1" stop-color="#D93C65"/>
        </linearGradient>
        <linearGradient id="paint16_linear" x1="147.101" y1="15.9137" x2="142.488" y2="81.6045"
                        gradientUnits="userSpaceOnUse">
            <stop stop-color="#FDF53F"/>
            <stop offset="1" stop-color="#D93C65"/>
        </linearGradient>
        <linearGradient id="paint17_linear" x1="148.818" y1="56.3695" x2="153.108" y2="126.153"
                        gradientUnits="userSpaceOnUse">
            <stop stop-color="#A737D5"/>
            <stop offset="1" stop-color="#EF497A"/>
        </linearGradient>
        <linearGradient id="paint18_linear" x1="149.436" y1="91.381" x2="160.175" y2="154.623"
                        gradientUnits="userSpaceOnUse">
            <stop stop-color="#B37CFF"/>
            <stop offset="1" stop-color="#F895E7"/>
        </linearGradient>
        <linearGradient id="paint19_linear" x1="180.739" y1="20.6723" x2="187.905" y2="89.4628"
                        gradientUnits="userSpaceOnUse">
            <stop stop-color="#53D8FF"/>
            <stop offset="1" stop-color="#3840F7"/>
        </linearGradient>
        <linearGradient id="paint20_linear" x1="186.111" y1="54.7913" x2="186.549" y2="118.488"
                        gradientUnits="userSpaceOnUse">
            <stop stop-color="#53D8FF"/>
            <stop offset="1" stop-color="#3840F7"/>
        </linearGradient>
        <linearGradient id="paint21_linear" x1="170.54" y1="28.5362" x2="160.132" y2="76.5068"
                        gradientUnits="userSpaceOnUse">
            <stop stop-color="#A737D5"/>
            <stop offset="1" stop-color="#EF497A"/>
        </linearGradient>
        <linearGradient id="paint22_linear" x1="168.335" y1="30.2383" x2="168.566" y2="40.7946"
                        gradientUnits="userSpaceOnUse">
            <stop stop-color="#A737D5"/>
            <stop offset="1" stop-color="#EF497A"/>
        </linearGradient>
        <linearGradient id="paint23_linear" x1="169.89" y1="65.2588" x2="159.866" y2="111.463"
                        gradientUnits="userSpaceOnUse">
            <stop stop-color="#A737D5"/>
            <stop offset="1" stop-color="#EF497A"/>
        </linearGradient>
        <linearGradient id="paint24_linear" x1="167.766" y1="66.8976" x2="167.989" y2="77.0652"
                        gradientUnits="userSpaceOnUse">
            <stop stop-color="#A737D5"/>
            <stop offset="1" stop-color="#EF497A"/>
        </linearGradient>
        <linearGradient id="paint25_linear" x1="170.186" y1="97.4587" x2="159.773" y2="145.458"
                        gradientUnits="userSpaceOnUse">
            <stop stop-color="#A737D5"/>
            <stop offset="1" stop-color="#EF497A"/>
        </linearGradient>
        <linearGradient id="paint26_linear" x1="167.979" y1="99.1616" x2="168.211" y2="109.724"
                        gradientUnits="userSpaceOnUse">
            <stop stop-color="#A737D5"/>
            <stop offset="1" stop-color="#EF497A"/>
        </linearGradient>
        <linearGradient id="paint27_linear" x1="142.182" y1="256.929" x2="213.101" y2="173.008"
                        gradientUnits="userSpaceOnUse">
            <stop stop-color="#CA476C"/>
            <stop offset="1" stop-color="#FF83A6"/>
        </linearGradient>
        <linearGradient id="paint28_linear" x1="198.254" y1="250.392" x2="220.318" y2="157.015"
                        gradientUnits="userSpaceOnUse">
            <stop stop-color="#CA476C"/>
            <stop offset="1" stop-color="#FF83A6"/>
        </linearGradient>
    </defs>
</svg>
