<svg width="226" height="250" viewBox="0 0 226 250" fill="none" xmlns="http://www.w3.org/2000/svg">
    <path opacity="0.3"
          d="M43.6867 224.284C93.3307 224.284 127.422 250 151.343 250C175.265 250 225.504 236.249 225.504 126.202C225.504 16.1557 157.917 0 131.606 0C8.39692 0 -44.2328 224.284 43.6867 224.284V224.284Z"
          fill="url(#paint0_linear)"/>
    <path d="M32.0098 123.209V184.214H51.7468L66.101 131.204C66.101 131.204 55.6368 123.209 32.0098 123.209Z"
          fill="#EF497A"/>
    <path d="M175.551 160.889C166.235 160.889 155.42 165.396 145.049 168.576V165.482C145.049 158.664 140.24 152.779 133.565 151.415L64.4497 137.276L53.7559 176.176C67.4641 182.636 102.775 198.569 119.929 198.569C141.46 198.569 193.494 169.86 193.494 169.86C193.494 169.86 189.905 160.889 175.551 160.889V160.889Z"
          fill="#EF497A"/>
    <path d="M193.495 125.9V64.895H173.758L159.403 117.905C159.403 117.905 169.868 125.9 193.495 125.9Z"
          fill="#F3F3F1"/>
    <path d="M49.9525 88.2208C59.2684 88.2208 70.0843 83.7136 80.4552 80.5341V83.6275C80.4552 90.4457 85.2639 96.3309 91.9386 97.6946L161.054 111.833L171.748 72.9336C158.04 66.4742 122.728 50.541 105.575 50.541C84.0438 50.541 32.0098 79.2494 32.0098 79.2494C32.0098 79.2494 35.5983 88.2208 49.9525 88.2208Z"
          fill="#F3F3F1"/>
    <path d="M32.0098 123.209V184.214H48.1582V124.644C43.6654 123.805 38.3471 123.209 32.0098 123.209Z" fill="#CA476C"/>
    <path d="M161.197 165.483V168.576C168.504 166.337 176.018 163.466 183.08 161.951C180.963 161.334 178.537 160.889 175.552 160.889C170.994 160.889 166.071 161.973 161.018 163.451C161.119 164.119 161.197 164.793 161.197 165.483V165.483Z"
          fill="#CA476C"/>
    <path d="M69.9043 176.176L79.737 140.406L64.4497 137.276L53.7559 176.176C67.4641 182.636 102.775 198.569 119.929 198.569C122.182 198.569 124.831 198.196 127.658 197.629C109.206 194.162 81.6461 181.71 69.9043 176.176V176.176Z"
          fill="#CA476C"/>
    <path d="M175.552 117.905L189.906 64.895H173.758L159.403 117.905C159.403 117.905 169.868 125.9 193.495 125.9V124.465C181.229 122.168 175.552 117.905 175.552 117.905Z"
          fill="#D5DBE1"/>
    <path d="M48.1582 79.2494C48.1582 79.2494 89.807 56.2971 113.994 51.4812C110.9 50.8999 108.037 50.541 105.575 50.541C84.0438 50.541 32.0098 79.2494 32.0098 79.2494C32.0098 79.2494 35.5983 88.2208 49.9525 88.2208C52.7085 88.2208 55.6009 87.7974 58.5722 87.1586C50.5052 84.8189 48.1582 79.2494 48.1582 79.2494Z"
          fill="#D5DBE1"/>
    <path d="M108.087 97.6946C101.412 96.331 96.6038 90.4458 96.6038 83.6275V80.5342C91.3071 82.1562 85.9028 84.1227 80.6348 85.6586C81.4817 91.5797 85.9386 96.4673 91.9387 97.6946L161.054 111.834L161.915 108.704L108.087 97.6946Z"
          fill="#D5DBE1"/>
    <path d="M193.495 132.181C168.339 132.181 156.619 123.446 156.138 123.073C154.401 121.745 153.633 119.499 154.207 117.389L168.561 64.3786C169.2 62.0389 171.324 60.4097 173.758 60.4097H193.495C196.466 60.4097 198.877 62.8212 198.877 65.7925V126.798C198.877 129.769 196.466 132.181 193.495 132.181V132.181ZM165.683 116.183C169.437 117.956 176.779 120.597 188.112 121.257V71.1753H177.877L165.683 116.183Z"
          fill="black"/>
    <path d="M49.952 94.5006C32.1599 94.5006 27.2149 82.6512 27.0139 82.1416C26.002 79.6153 27.0283 76.7445 29.4111 75.4311C31.5786 74.2325 82.9164 46.0552 105.574 46.0552C122.864 46.0552 155.893 60.4094 174.044 68.9573L169.451 78.6966C139.96 64.7946 116.67 56.8208 105.574 56.8208C91.0193 56.8208 57.9759 72.5387 40.6648 81.6105C42.66 82.7517 45.6313 83.735 49.952 83.735C56.2534 83.735 64.0406 81.144 71.5766 78.6249C79.9235 75.8402 88.5576 72.9693 96.6031 72.9693C111.732 72.9693 131.692 80.1679 132.532 80.4694L128.857 90.5891C128.67 90.5173 109.823 83.735 96.6031 83.735C90.3016 83.735 82.5145 86.3259 74.9785 88.8451C66.6315 91.6298 58.0047 94.5006 49.952 94.5006V94.5006Z"
          fill="black"/>
    <path d="M159.978 117.999L90.8624 103.86C81.7187 101.987 75.0728 93.8548 75.0728 84.5246V81.2949H85.8384V84.5246C85.8384 88.7663 88.86 92.4625 93.0155 93.3238L162.131 107.463L159.978 117.999Z"
          fill="black"/>
    <path d="M51.7463 189.598H32.0093C29.038 189.598 26.6265 187.186 26.6265 184.215V123.209C26.6265 120.238 29.038 117.827 32.0093 117.827C57.165 117.827 68.8852 126.561 69.3661 126.934C71.103 128.262 71.8709 130.509 71.2968 132.619L56.9425 185.629C56.3038 187.968 54.1794 189.598 51.7463 189.598ZM37.3921 178.832H47.6267L59.8134 133.824C56.0598 132.052 48.7176 129.41 37.3849 128.75V178.832H37.3921Z"
          fill="black"/>
    <path d="M119.929 203.951C102.639 203.951 69.6104 189.597 51.4595 181.049L56.0528 171.31C85.5507 185.219 108.833 193.193 119.929 193.193C134.484 193.193 167.528 177.475 184.839 168.403C182.844 167.262 179.872 166.279 175.552 166.279C169.25 166.279 161.463 168.87 153.927 171.389C145.58 174.174 136.946 177.044 128.9 177.044C113.771 177.044 93.8116 169.846 92.9718 169.544L96.6465 159.425C96.8331 159.496 115.68 166.279 128.9 166.279C135.202 166.279 142.989 163.688 150.525 161.169C158.872 158.384 167.506 155.513 175.552 155.513C193.344 155.513 198.289 167.363 198.49 167.872C199.502 170.398 198.475 173.269 196.092 174.583C193.925 175.774 142.587 203.951 119.929 203.951Z"
          fill="black"/>
    <path d="M150.432 168.712H139.666V165.483C139.666 161.241 136.644 157.545 132.489 156.683L112.96 152.664L115.135 142.121L134.656 146.14C143.793 148.013 150.439 156.145 150.439 165.475V168.712H150.432Z"
          fill="black"/>
    <path d="M63.4331 142.608L65.5877 132.051L101.192 139.317L99.037 149.874L63.4331 142.608Z" fill="black"/>
    <defs>
        <linearGradient id="paint0_linear" x1="-102.225" y1="335.943" x2="141.012" y2="79.8384"
                        gradientUnits="userSpaceOnUse">
            <stop stop-color="#CA476C"/>
            <stop offset="1" stop-color="#FF83A6"/>
        </linearGradient>
    </defs>
</svg>
