<svg width="242" height="250" viewBox="0 0 242 250" fill="none" xmlns="http://www.w3.org/2000/svg">
    <path opacity="0.3"
          d="M44.8631 154.559C56.5561 175.403 56.0477 186.587 67.7406 201.33C83.0891 226.381 108.29 251.302 153.371 249.947C168.096 248.734 197.723 246.289 220.865 224.491C265.292 182.631 230.469 122.406 187.937 70.8875C164.843 30.0037 155.796 -0.588613 96.7186 0.00859479C53.4677 0.447169 35.3309 17.8201 31.645 20.8528C26.9793 24.688 13.3426 34.5793 4.52647 49.3225C-14.8298 81.6922 33.4554 134.223 44.8631 154.559Z"
          fill="url(#paint0_linear)"/>
    <path d="M167.974 144.456C181.935 132.867 190.455 115.534 190.455 96.9007C190.455 62.8184 162.724 35.0879 128.641 35.0879C94.5575 35.0879 66.827 62.8184 66.827 96.9017C66.827 115.528 75.3557 132.867 89.314 144.457L60.165 194.941L82.5992 187.784L87.62 210.791L121.712 151.745C123.988 152.029 126.294 152.228 128.647 152.228C131.005 152.228 133.306 152.03 135.584 151.745L169.676 210.791L174.692 187.784L197.128 194.941L167.974 144.456ZM90.6012 96.9017C90.6012 75.8982 107.636 58.8621 128.641 58.8621C149.642 58.8621 166.68 75.8982 166.68 96.9017C166.68 117.905 149.642 134.941 128.641 134.941C107.637 134.941 90.6012 117.911 90.6012 96.9017ZM183.967 96.9017C183.967 66.3476 159.202 41.5729 128.641 41.5729C98.0837 41.5729 73.3119 66.3415 73.3119 96.9017C73.3119 113.661 80.8005 128.657 92.5727 138.804L90.9042 141.702C77.9037 130.705 69.9973 114.385 69.9973 96.9078C69.9973 64.5673 96.3012 38.2643 128.641 38.2643C160.984 38.2643 187.284 64.5683 187.284 96.9078C187.284 114.405 179.384 130.719 166.382 141.702L164.71 138.804C176.481 128.651 183.967 113.661 183.967 96.9017Z"
          fill="url(#paint1_linear)"/>
    <rect x="97.7349" y="65.5908" width="62.0233" height="62.0233" rx="31.0117" fill="url(#paint2_linear)"/>
    <path d="M118.056 79.8254C118.056 77.7919 121.106 74.2332 122.632 72.708V81.3506C127.152 83.3842 129.241 87.9596 129.749 91.01C128.758 92.4968 124.384 97.3658 124.636 101.378C124.729 99.22 130.33 94.9556 131.782 92.5351C131.105 90.1627 129.851 84.706 130.257 81.859C131.477 76.5718 136.188 74.2332 138.392 73.7248C137.205 75.7583 134.629 80.5372 133.816 83.3842C133.816 84.4009 136.866 88.468 138.9 91.01C140.933 93.5519 136.866 102.194 136.358 105.753C142.459 99.1442 141.442 94.0603 140.933 91.01C138.392 85.9261 138.9 85.9261 138.9 83.3842C141.34 79.317 143.984 77.9613 145.001 77.7919V87.9596C146.017 88.9764 148.254 91.7217 149.068 94.5687C150.288 111.244 139.408 118.802 133.816 120.496V115.413C132.291 117.107 128.427 120.496 125.173 120.496C121.92 120.496 119.073 114.396 118.056 111.345L116.531 116.938C114.497 114.396 106.363 105.753 114.497 98.1274C123.648 92.5351 122.123 91.5184 122.123 90.5016C123.648 89.4848 118.056 82.3674 118.056 79.8254Z"
          fill="white"/>
    <path d="M111.462 85.418L113.495 76.7754L115.02 85.418L116.037 87.9599L115.529 90.5019L107.903 97.6193V91.5186L111.462 85.418Z"
          fill="white"/>
    <defs>
        <linearGradient id="paint0_linear" x1="-14.2377" y1="291.571" x2="175.176" y2="87.1243"
                        gradientUnits="userSpaceOnUse">
            <stop stop-color="#CA476C"/>
            <stop offset="1" stop-color="#FF83A6"/>
        </linearGradient>
        <linearGradient id="paint1_linear" x1="-96.469" y1="266.913" x2="284.313" y2="-9.14182"
                        gradientUnits="userSpaceOnUse">
            <stop stop-color="#CA476C"/>
            <stop offset="1" stop-color="#EF497A"/>
        </linearGradient>
        <linearGradient id="paint2_linear" x1="6.22507" y1="213.023" x2="255.335" y2="-28.4609"
                        gradientUnits="userSpaceOnUse">
            <stop stop-color="#CA476C"/>
            <stop offset="1" stop-color="#EF497A"/>
        </linearGradient>
    </defs>
</svg>
